PathFileType  4	(X/Y/Z) C:\Users\wagnerel85475\Documents\Thesis\opencap-core\Data\3375ffbc-daeb-4a43-b4f7-ac9899cd4c71\MarkerData\PreAugmentation
DataRate	CameraRate	NumFrames	NumMarkers	Units	OrigDataRate	OrigDataStartFrame	OrigNumFrames
60.0	60.0	17	20	m	60.0	401	640
Frame#	Time	Neck			RShoulder			RElbow			RWrist			LShoulder			LElbow			LWrist			midHip			RHip			RKnee			RAnkle			LHip			LKnee			LAnkle			LBigToe			LSmallToe			LHeel			RBigToe			RSmallToe			RHeel			
		X1	Y1	Z1	X2	Y2	Z2	X3	Y3	Z3	X4	Y4	Z4	X5	Y5	Z5	X6	Y6	Z6	X7	Y7	Z7	X8	Y8	Z8	X9	Y9	Z9	X10	Y10	Z10	X11	Y11	Z11	X12	Y12	Z12	X13	Y13	Z13	X14	Y14	Z14	X15	Y15	Z15	X16	Y16	Z16	X17	Y17	Z17	X18	Y18	Z18	X19	Y19	Z19	X20	Y20	Z20	

401	6.6666667	0.5837500	1.3763100	-0.1108500	0.5713400	1.3801300	0.0654100	0.7733000	1.1982700	0.1527600	1.1058600	1.1941600	0.0368400	0.5963900	1.3766900	-0.2983800	0.8879600	1.1656900	-0.3477400	1.1249400	1.1889300	-0.1857100	0.6169700	0.8250600	-0.0954200	0.6264700	0.8275600	0.0228400	0.6097100	0.3303300	0.0464300	0.5288200	-0.1825900	0.0865700	0.6209100	0.8219000	-0.2166700	0.5729400	0.3070200	-0.2253400	0.5474700	-0.1895500	-0.2723200	0.7744300	-0.2292600	-0.3216100	0.7300700	-0.2369300	-0.3470100	0.4860300	-0.2431300	-0.2644700	0.7028400	-0.2381200	0.2027700	0.6631400	-0.2327600	0.2196200	0.5037000	-0.2225000	0.0645500
402	6.6833333	0.5893900	1.3754000	-0.1089900	0.5762000	1.3795500	0.0670100	0.7813900	1.1970100	0.1547000	1.1195800	1.1959600	0.0458800	0.6012000	1.3736800	-0.3011400	0.8926200	1.1648600	-0.3463700	1.1227700	1.1934700	-0.1845600	0.6063200	0.8220600	-0.0992800	0.6158300	0.8265400	0.0238100	0.6208600	0.3401800	0.0460700	0.5288000	-0.1830200	0.0865600	0.6105900	0.8183000	-0.2161600	0.5723900	0.3095700	-0.2255000	0.5472400	-0.1872200	-0.2721400	0.7741000	-0.2294000	-0.3218600	0.7303600	-0.2371200	-0.3468700	0.4866900	-0.2369100	-0.2634000	0.6965600	-0.2379600	0.2015400	0.6628200	-0.2309300	0.2199800	0.5034400	-0.2231500	0.0647100
403	6.7000000	0.5894000	1.3786800	-0.1087700	0.5774600	1.3797500	0.0674100	0.7946700	1.1958000	0.1556600	1.1236800	1.1962400	0.0400000	0.6126700	1.3764100	-0.3005700	0.8973800	1.1668800	-0.3474900	1.1250100	1.1946600	-0.1856900	0.6000500	0.8212500	-0.0968800	0.5941900	0.8241200	0.0291800	0.6157000	0.3336200	0.0486100	0.5291900	-0.1848800	0.0862200	0.6049800	0.8153500	-0.2137900	0.5728900	0.3091200	-0.2255800	0.5474700	-0.1874100	-0.2719800	0.7744100	-0.2313000	-0.3220000	0.7300500	-0.2389100	-0.3473600	0.4874800	-0.2394200	-0.2630700	0.6967700	-0.2374800	0.2015900	0.6627500	-0.2305100	0.2200200	0.5031800	-0.2257100	0.0653300
404	6.7166667	0.5946700	1.3796300	-0.1114100	0.5883100	1.3790800	0.0709800	0.8134000	1.1953800	0.1611100	1.1405700	1.1927400	0.0427100	0.6118900	1.3776200	-0.3010700	0.8973200	1.1693500	-0.3484700	1.1272600	1.1950900	-0.1824900	0.5955400	0.8186800	-0.0990500	0.6054400	0.8206400	0.0241800	0.6217900	0.3343600	0.0499000	0.5354200	-0.1813400	0.0876100	0.5996000	0.8147200	-0.2159400	0.5738500	0.3074700	-0.2268300	0.5471000	-0.1851800	-0.2724900	0.7741500	-0.2314100	-0.3222200	0.7303700	-0.2391000	-0.3472300	0.4867700	-0.2371700	-0.2633700	0.6971600	-0.2350500	0.2062200	0.6624700	-0.2284600	0.2204400	0.5088100	-0.2213200	0.0620600
405	6.7333333	0.5895200	1.3786200	-0.1086700	0.6015700	1.3767500	0.0753300	0.8320300	1.1879500	0.1638500	1.1368400	1.1924900	0.0413500	0.6180900	1.3762500	-0.2981800	0.9114400	1.1726100	-0.3405700	1.1422200	1.1908800	-0.1816500	0.5944400	0.8162800	-0.0992400	0.5836300	0.8155100	0.0247600	0.6274300	0.3338300	0.0528100	0.5351100	-0.1829200	0.0880200	0.5936000	0.8122600	-0.2186200	0.5831400	0.3119200	-0.2259000	0.5473700	-0.1874400	-0.2720100	0.7696000	-0.2330300	-0.3241700	0.7201700	-0.2424300	-0.3518400	0.4873500	-0.2352500	-0.2630900	0.7021600	-0.2329200	0.2036100	0.6624800	-0.2281400	0.2204200	0.5083300	-0.2253300	0.0630600
406	6.7500000	0.5952800	1.3771100	-0.1067500	0.6063400	1.3762100	0.0769400	0.8783300	1.1809500	0.1780300	0.9402400	1.2204800	-0.0393100	0.6175000	1.3751900	-0.2986400	0.9114000	1.1705100	-0.3415500	1.1483500	1.1901400	-0.1805200	0.5844300	0.8110100	-0.0986200	0.5797900	0.8102600	0.0275200	0.6396100	0.3699700	0.0594800	0.5350800	-0.1833200	0.0880000	0.5887300	0.8072300	-0.2203700	0.5983500	0.3257500	-0.2235400	0.5417300	-0.1891300	-0.2743700	0.7741000	-0.2314200	-0.3222700	0.7205400	-0.2406000	-0.3513600	0.4870900	-0.2352500	-0.2630400	0.6915000	-0.2311000	0.2042600	0.6623700	-0.2264100	0.2207500	0.5082300	-0.2243900	0.0628400
407	6.7666667	0.5958300	1.3713400	-0.1063700	0.6080000	1.3718400	0.0774200	0.8367900	1.1915600	0.1613300	1.1489200	1.1885700	0.0386000	0.6183300	1.3719500	-0.2981400	0.9069500	1.1718600	-0.3472000	1.1631100	1.1845800	-0.1796400	0.5777100	0.8038700	-0.1009500	0.5722300	0.8033700	0.0254600	0.6511200	0.3331700	0.0642800	0.5351100	-0.1828500	0.0880400	0.5773200	0.8043400	-0.2252500	0.6049200	0.3205000	-0.2261600	0.5420700	-0.1871500	-0.2739000	0.7744600	-0.2312700	-0.3220400	0.7201100	-0.2384200	-0.3519100	0.4873800	-0.2355300	-0.2630900	0.6963800	-0.2266400	0.2020100	0.6671700	-0.2243800	0.2180800	0.5090200	-0.2205200	0.0619400
408	6.7833333	0.6013900	1.3702500	-0.1044900	0.6132900	1.3668400	0.0790700	0.8866700	1.1790900	0.1729800	1.1626200	1.1769200	0.0436500	0.6336600	1.3686900	-0.2962000	0.9210500	1.1653600	-0.3369600	1.1659000	1.1792900	-0.1722600	0.5679500	0.7937800	-0.1005400	0.5727100	0.7904200	0.0259000	0.6515000	0.3321800	0.0645800	0.5347500	-0.1810700	0.0883600	0.5665100	0.7943700	-0.2249700	0.6313900	0.3259300	-0.2333300	0.5417600	-0.1870500	-0.2740600	0.7741400	-0.2313800	-0.3222900	0.7203800	-0.2365700	-0.3521600	0.4815500	-0.2373400	-0.2652700	0.7055400	-0.2194900	0.1967200	0.6720800	-0.2210300	0.2150400	0.5029700	-0.2203700	0.0650800
409	6.8000000	0.6193000	1.3620000	-0.0976100	0.6205300	1.3628000	0.0814200	0.9007500	1.1771700	0.1782100	1.1535500	1.1768400	0.0362600	0.6453400	1.3629500	-0.2908900	0.9213600	1.1656900	-0.3447000	1.1798600	1.1730500	-0.1840000	0.5669100	0.7873000	-0.1006300	0.5673100	0.7851200	0.0280200	0.6566800	0.3345600	0.0666600	0.5286800	-0.1845100	0.0869800	0.5718200	0.7933700	-0.2228500	0.6384400	0.3276200	-0.2361200	0.5417100	-0.1850600	-0.2749900	0.7744200	-0.2294300	-0.3223500	0.7249500	-0.2346900	-0.3500300	0.4802500	-0.2408400	-0.2667600	0.7002500	-0.2233900	0.1947100	0.6710500	-0.2210900	0.2107300	0.5028200	-0.2230400	0.0657100
410	6.8166667	0.6298700	1.3546800	-0.0981800	0.6305400	1.3598100	0.0804400	0.9245300	1.1662200	0.1851600	1.1533000	1.1700200	0.0358500	0.6502400	1.3515100	-0.2890600	0.9398200	1.1614900	-0.3409300	1.1862200	1.1723700	-0.1787000	0.5460200	0.7868100	-0.0951500	0.5620100	0.7870700	0.0263800	0.6526100	0.3306200	0.0697500	0.5291000	-0.1853000	0.0862000	0.5553000	0.7866600	-0.2248700	0.6416600	0.3297900	-0.2379100	0.5469300	-0.1831500	-0.2729100	0.7740500	-0.2274600	-0.3222600	0.7252800	-0.2348300	-0.3499100	0.4799800	-0.2407100	-0.2667000	0.7104900	-0.2182800	0.1933100	0.6758900	-0.2197500	0.2080800	0.5030000	-0.2246100	0.0650700
411	6.8333333	0.6296900	1.3500100	-0.0979000	0.6255400	1.3541700	0.0789000	0.8841600	1.1677800	0.1688900	1.1777200	1.1677100	0.0307900	0.6511300	1.3483100	-0.2884600	0.9400400	1.1562100	-0.3398400	1.1959600	1.1639500	-0.1840100	0.5280800	0.7822400	-0.0972900	0.5449400	0.7828300	0.0243500	0.6583100	0.3309200	0.0720200	0.5348400	-0.1849400	0.0884500	0.5381600	0.7829400	-0.2227900	0.6517800	0.3323700	-0.2418500	0.5421200	-0.1889900	-0.2756800	0.7792600	-0.2295200	-0.3197700	0.7300300	-0.2368800	-0.3477500	0.4743100	-0.2459900	-0.2704700	0.7062900	-0.2239400	0.1959300	0.6762000	-0.2218000	0.2077000	0.5031100	-0.2256700	0.0653800
412	6.8500000	0.6352900	1.3446000	-0.0960200	0.6308700	1.3479300	0.0849800	0.8860100	1.1615700	0.1689000	1.1860700	1.1584600	0.0341400	0.6559000	1.3429400	-0.2866800	0.9491300	1.1466200	-0.3406600	1.1985100	1.1549900	-0.1808100	0.5179400	0.7721400	-0.0966400	0.5279700	0.7719300	0.0234300	0.6658000	0.3272400	0.0827400	0.5346600	-0.1830600	0.0887600	0.5218300	0.7708500	-0.2195500	0.6567800	0.3266700	-0.2445600	0.5473000	-0.1871800	-0.2736300	0.7788700	-0.2277100	-0.3197100	0.7253900	-0.2368100	-0.3495200	0.4797300	-0.2463900	-0.2677600	0.7012900	-0.2260700	0.1985200	0.6711900	-0.2216400	0.2107400	0.5026700	-0.2236300	0.0658400
413	6.8666667	0.6466200	1.3363100	-0.0959200	0.6505300	1.3324500	0.0913100	0.9373000	1.1427500	0.1862800	1.1553000	1.1501900	0.0214900	0.6618500	1.3361100	-0.2883800	0.9545100	1.1283900	-0.3372800	1.2138300	1.1460600	-0.1760100	0.5058000	0.7575600	-0.0965200	0.5165100	0.7614500	0.0235300	0.6773200	0.3245000	0.0904000	0.5345400	-0.1845600	0.0892100	0.5160800	0.7572300	-0.2174400	0.6737800	0.3233700	-0.2517700	0.5421800	-0.1889900	-0.2756800	0.7696800	-0.2311000	-0.3237800	0.7153300	-0.2362400	-0.3534400	0.4856900	-0.2420200	-0.2659700	0.7019600	-0.2281700	0.1981500	0.6714000	-0.2236100	0.2103600	0.4975200	-0.2280100	0.0690700
414	6.8833333	0.6523000	1.3226700	-0.0940200	0.6651800	1.3233900	0.0877400	0.9130900	1.1301500	0.1777900	1.0163000	1.1813600	-0.0418200	0.6614100	1.3262900	-0.2842900	0.9545600	1.1225500	-0.3383300	1.2156100	1.1399300	-0.1768700	0.5060600	0.7625500	-0.0960100	0.5006200	0.7610000	0.0271000	0.6785500	0.3216500	0.0949300	0.5345600	-0.1849500	0.0891400	0.5051300	0.7604200	-0.2168100	0.6715500	0.3188500	-0.2554000	0.5472700	-0.1829300	-0.2736500	0.7690700	-0.2313500	-0.3197900	0.7157100	-0.2364200	-0.3532800	0.4852200	-0.2400400	-0.2655700	0.7012300	-0.2261100	0.1985300	0.6663700	-0.2233800	0.2133900	0.4973600	-0.2286500	0.0691700
415	6.9000000	0.6577700	1.3112200	-0.0960900	0.6718000	1.3114900	0.0901000	0.8951800	1.1300900	0.1726400	1.2041700	1.1294400	0.0377400	0.6783800	1.3120900	-0.2812000	0.9548900	1.1159300	-0.3371900	1.2182200	1.1246600	-0.1739300	0.4942500	0.7515100	-0.0961700	0.4950500	0.7513600	0.0292200	0.6783000	0.3163400	0.0949200	0.5345600	-0.1845200	0.0891900	0.4990300	0.7509800	-0.2149200	0.6773600	0.3155100	-0.2576100	0.5473200	-0.1831100	-0.2727500	0.7696800	-0.2310800	-0.3237900	0.7153700	-0.2362500	-0.3534100	0.4859500	-0.2326400	-0.2642100	0.7016700	-0.2257300	0.1985800	0.6769600	-0.2193200	0.2123600	0.5028400	-0.2245700	0.0660900
416	6.9166667	0.6740600	1.3010700	-0.0944900	0.6760600	1.2960300	0.0872500	0.8921200	1.1190500	0.1708900	1.2125500	1.1151300	0.0368600	0.6884100	1.3046600	-0.2771200	0.9643400	1.1024900	-0.3336200	1.2291400	1.1135500	-0.1709800	0.4897500	0.7402700	-0.0931800	0.4888800	0.7389900	0.0328100	0.6855300	0.3106300	0.1012600	0.5346000	-0.1849000	0.0891300	0.4882700	0.7381900	-0.2142200	0.6869800	0.3162300	-0.2574800	0.5469700	-0.1830600	-0.2729300	0.7692800	-0.2312200	-0.3240700	0.7155200	-0.2384000	-0.3536300	0.4854400	-0.2345200	-0.2644900	0.6965100	-0.2278500	0.2012000	0.6721900	-0.2214200	0.2150400	0.5026300	-0.2251500	0.0661800
417	6.9333333	0.6799600	1.2811100	-0.0919700	0.6724700	1.2837700	0.0902700	0.9008200	1.0988600	0.1744400	1.2170400	1.1024700	0.0390900	0.6898300	1.2817400	-0.2764200	0.9697300	1.0805300	-0.3301700	1.2270600	1.0929000	-0.1741400	0.4835700	0.7236900	-0.0910200	0.4841700	0.7199300	0.0298700	0.7076500	0.3127100	0.1087800	0.5344900	-0.1845600	0.0891900	0.4879900	0.7247400	-0.2146900	0.6823200	0.3147000	-0.2687300	0.5473100	-0.1808400	-0.2731400	0.7744300	-0.2273100	-0.3220400	0.7201600	-0.2364500	-0.3515300	0.4854700	-0.2321400	-0.2649200	0.6907800	-0.2288500	0.2003600	0.6663100	-0.2249600	0.2137700	0.5028900	-0.2262000	0.0664000
